<?xml version="1.0" encoding="UTF-8" standalone="no"?>
<svg
   xmlns:dc="http://purl.org/dc/elements/1.1/"
   xmlns:cc="http://creativecommons.org/ns#"
   xmlns:rdf="http://www.w3.org/1999/02/22-rdf-syntax-ns#"
   xmlns:svg="http://www.w3.org/2000/svg"
   xmlns="http://www.w3.org/2000/svg"
   xmlns:xlink="http://www.w3.org/1999/xlink"
   xmlns:sodipodi="http://sodipodi.sourceforge.net/DTD/sodipodi-0.dtd"
   xmlns:inkscape="http://www.inkscape.org/namespaces/inkscape"
   version="1.1"
   id="svg2"
   viewBox="0 0 399.99998 399.99998"
   height="400"
   width="400"
   inkscape:version="0.92.3 (2405546, 2018-03-11)"
   sodipodi:docname="Hamburg_Icon.svg">
  <sodipodi:namedview
     pagecolor="#ffffff"
     bordercolor="#666666"
     borderopacity="1"
     objecttolerance="10"
     gridtolerance="10"
     guidetolerance="10"
     inkscape:pageopacity="0"
     inkscape:pageshadow="2"
     inkscape:window-width="1920"
     inkscape:window-height="1017"
     id="namedview4142"
     showgrid="false"
     inkscape:zoom="1.1048543"
     inkscape:cx="180.96684"
     inkscape:cy="40.314685"
     inkscape:window-x="-8"
     inkscape:window-y="-8"
     inkscape:window-maximized="1"
     inkscape:current-layer="g905" />
  <defs
     id="defs4" />
  <metadata
     id="metadata7">
    <rdf:RDF>
      <cc:Work
         rdf:about="">
        <dc:format>image/svg+xml</dc:format>
        <dc:type
           rdf:resource="http://purl.org/dc/dcmitype/StillImage" />
        <dc:title />
      </cc:Work>
    </rdf:RDF>
  </metadata>
  <g
     id="g4144"
     transform="rotate(180,199.99998,199.99999)">
    <rect
       y="2.2617187e-005"
       x="6.6757229e-006"
       height="399.99994"
       width="399.99994"
       id="rect4136"
       style="color:#000000;clip-rule:nonzero;display:inline;overflow:visible;visibility:visible;opacity:1;isolation:auto;mix-blend-mode:normal;color-interpolation:sRGB;color-interpolation-filters:linearRGB;solid-color:#000000;solid-opacity:1;fill:#cc0022;fill-opacity:1;fill-rule:nonzero;stroke:none;stroke-width:2;stroke-linecap:butt;stroke-linejoin:miter;stroke-miterlimit:4;stroke-dasharray:none;stroke-dashoffset:0;stroke-opacity:1;color-rendering:auto;image-rendering:auto;shape-rendering:auto;text-rendering:auto;enable-background:accumulate" />
  </g>
  <g
     id="g905"
     transform="translate(-99.04,-0.32)">
    <g
       id="g871"
       style="stroke:#cc0022;stroke-opacity:1"
       transform="translate(3.6203867)">
      <g
         id="g841"
         style="fill:#ffffff;stroke:#cc0022;stroke-opacity:1">
        <g
           id="g837"
           style="stroke:#cc0022;stroke-width:1.20000005;stroke-opacity:1">
          <path
             id="path829"
             d="m 309.3,75.37 c 0,0 0.5078,-8.848 -7.287,-10.24 v -9.525 h 6.27 v -4.067 h -6.27 v -5.204 h -3.886 v 5.204 h -6.27 v 4.067 h 6.27 v 9.525 c -7.795,1.391 -7.287,10.24 -7.287,10.24"
             inkscape:connector-curvature="0"
             style="stroke:#cc0022;stroke-opacity:1" />
          <path
             id="path831"
             d="m 277.9,94.91 h 44.14 c 0,-11.98 -11.11,-21.58 -22.07,-21.58 -10.96,0 -22.07,9.6 -22.07,21.58 z"
             inkscape:connector-curvature="0"
             style="stroke:#cc0022;stroke-opacity:1" />
          <path
             id="path833"
             d="m 322.9,105.5 2.5,-0.853 V 94.9 h -50.73 v 9.747 l 2.5,0.853 z"
             inkscape:connector-curvature="0"
             style="stroke:#cc0022;stroke-opacity:1" />
          <path
             id="path835"
             d="M 322.4,200.6 V 105.49 H 277.55 V 200.6"
             inkscape:connector-curvature="0"
             style="stroke:#cc0022;stroke-opacity:1" />
        </g>
        <path
           id="path839"
           d="m 207.9,276.7 c 7.371,-33.4 4.699,-66.48 4.699,-66.48 h 174.8 c 0,0 -2.672,33.08 4.699,66.48 7.999,36.26 15.17,48.8 15.17,48.8 v 14.59 h -214.5 l -0.019,-14.59 c 0,0 7.148,-12.54 15.15,-48.8 z"
           inkscape:connector-curvature="0"
           style="stroke:#cc0022;stroke-opacity:1" />
      </g>
      <g
         id="b"
         style="fill:none;stroke:#cc0022;stroke-opacity:1">
        <g
           id="g851"
           style="fill:#ffffff;stroke:#cc0022;stroke-width:1.20000005;stroke-opacity:1">
          <path
             id="path843"
             d="m 233.9,82.39 h 8.365 v 11.13 h 5.4 V 82.39 h 8.688 v 11.13 h 5.717 V 82.39 h 8.319 v 21.92 l -2.792,1.205 h -45.46 l -3.361,-1.205 V 82.39 h 8.745 v 11.13 h 6.383 z"
             inkscape:connector-curvature="0"
             style="stroke:#cc0022;stroke-opacity:1" />
          <path
             id="path845"
             d="m 222.1,105.5 h 45.4 v 96.43 h -45.4 z"
             inkscape:connector-curvature="0"
             style="stroke:#cc0022;stroke-opacity:1" />
          <path
             id="path847"
             d="m 232.6,69.3 4.12,-7.13 -4.12,-7.13 h 8.24 l 4.12,-7.13 4.12,7.13 h 8.24 l -4.12,7.13 4.12,7.13 h -8.24 l -4.12,7.14 -4.12,-7.14 z"
             inkscape:connector-curvature="0"
             style="stroke:#cc0022;stroke-opacity:1" />
          <path
             id="path849"
             d="m 301,185.4 h -8.031 v 13.06 h -13.05 V 185.4 h -14.34 v 13.06 h -11.96 V 185.4 h -13.88 v 13.06 h -11.87 V 185.4 h -16.17 v 24.74 l 3.852,0.9395 h 85.45"
             inkscape:connector-curvature="0"
             style="stroke:#cc0022;stroke-opacity:1" />
        </g>
        <path
           id="path853"
           d="m 222.1,106 h 45.36"
           inkscape:connector-curvature="0"
           style="stroke:#cc0022;stroke-width:2;stroke-opacity:1" />
        <path
           id="path855"
           d="m 266.4,340.1 v -73.78 c 0,-6.687 9.045,-30.81 33.6,-30.81"
           inkscape:connector-curvature="0"
           style="stroke:#cc0022;stroke-width:2.5;stroke-opacity:1" />
        <path
           id="path857"
           d="m 277,340.1 v -69.84 c 0,-11.39 9.074,-24.43 23,-24.43"
           inkscape:connector-curvature="0"
           style="stroke:#cc0022;stroke-opacity:1" />
        <path
           d="m 283.9,321.3 c 0,-3.16 1.18,-3.16 2.1,-3.16 0.93,0 -0.11,1.27 -0.11,3 0,1.73 1,3.3 0.11,3.3 -0.89,0 -2.1,-0.28 -2.1,-3.16 z m -6.9,-0.1 h 6.451"
           id="a"
           inkscape:connector-curvature="0"
           style="fill:#cc0022;fill-opacity:1;stroke:#cc0022;stroke-opacity:1" />
        <path
           id="path860"
           d="m 193,325.5 h 73"
           inkscape:connector-curvature="0"
           style="stroke:#cc0022;stroke-width:2;stroke-opacity:1" />
        <use
           id="use862"
           y="-50"
           xlink:href="#a"
           x="0"
           width="100%"
           height="100%"
           style="stroke:#cc0022;stroke-opacity:1" />
      </g>
      <use
         id="use865"
         transform="matrix(-1,0,0,1,600,0)"
         xlink:href="#b"
         x="0"
         y="0"
         width="100%"
         height="100%"
         style="stroke:#cc0022;stroke-opacity:1" />
      <path
         id="path867"
         d="M 212.2,210.2 H 387.8 M 277.8,106 h 44.16"
         inkscape:connector-curvature="0"
         style="stroke:#cc0022;stroke-width:2;stroke-opacity:1" />
      <path
         id="path869"
         d="m 300,245.8 v 94.27"
         inkscape:connector-curvature="0"
         style="stroke:#cc0022;stroke-opacity:1" />
    </g>
  </g>
</svg>
